<svg xmlns="http://www.w3.org/2000/svg" xmlns:xlink="http://www.w3.org/1999/xlink" preserveAspectRatio="xMidYMid" width="20.188" height="21" viewBox="0 0 20.188 21">
  <defs>
    <style>
      .cls-1 {
        fill: #369;
        fill-rule: evenodd;
      }
    </style>
  </defs>
  <path d="M18.475,10.478 C18.602,10.328 18.722,10.179 18.836,10.023 C21.726,6.205 19.850,3.129 14.894,3.572 C14.704,3.590 14.495,3.608 14.299,3.638 C14.216,3.464 14.134,3.285 14.051,3.112 C12.036,-1.066 8.201,-1.066 6.167,3.112 C6.084,3.285 6.003,3.464 5.932,3.638 C5.730,3.608 5.520,3.590 5.337,3.572 C0.349,3.123 -1.520,6.176 1.388,10.023 C1.509,10.179 1.623,10.328 1.743,10.478 C1.623,10.634 1.509,10.789 1.388,10.933 C-1.445,14.685 0.469,17.827 5.337,17.390 C5.520,17.372 5.730,17.348 5.932,17.318 C6.003,17.498 6.084,17.671 6.167,17.845 C8.201,22.034 12.036,22.046 14.051,17.845 C14.134,17.671 14.216,17.498 14.299,17.318 C14.495,17.348 14.704,17.372 14.894,17.390 C19.749,17.827 21.663,14.685 18.836,10.933 C18.722,10.789 18.602,10.634 18.475,10.478 L18.475,10.478 ZM14.989,4.578 L14.989,4.578 C19.045,4.212 20.319,6.313 17.968,9.443 L17.771,9.705 C17.081,9.000 16.276,8.294 15.351,7.630 C15.198,6.547 14.964,5.529 14.659,4.614 L14.989,4.578 L14.989,4.578 ZM17.081,10.478 L17.081,10.478 C16.612,10.963 16.086,11.453 15.490,11.926 C15.560,10.963 15.553,10.006 15.490,9.030 C16.086,9.509 16.612,10.006 17.081,10.478 L17.081,10.478 ZM14.134,6.798 L14.134,6.798 C13.278,6.271 12.385,5.781 11.465,5.349 C12.200,5.122 12.917,4.919 13.595,4.775 C13.817,5.410 13.994,6.079 14.134,6.798 L14.134,6.798 ZM7.137,3.542 L7.137,3.542 C8.785,0.137 11.440,0.137 13.082,3.542 C13.132,3.625 13.183,3.727 13.221,3.829 C12.232,4.038 11.187,4.344 10.109,4.775 C9.044,4.344 7.986,4.038 7.010,3.829 L7.137,3.542 L7.137,3.542 ZM6.624,4.775 L6.624,4.775 C7.314,4.919 8.024,5.122 8.753,5.349 C7.834,5.781 6.947,6.271 6.097,6.798 C6.237,6.079 6.408,5.410 6.624,4.775 L6.624,4.775 ZM5.229,16.385 L5.229,16.385 C1.287,16.744 -0.038,14.578 2.257,11.519 C2.314,11.441 2.396,11.352 2.453,11.262 C3.144,11.968 3.955,12.668 4.881,13.333 C5.032,14.410 5.261,15.439 5.559,16.349 L5.229,16.385 L5.229,16.385 ZM3.144,10.478 L3.144,10.478 C3.613,10.006 4.139,9.509 4.735,9.030 C4.665,10.006 4.665,10.963 4.735,11.926 C4.139,11.453 3.613,10.963 3.144,10.478 L3.144,10.478 ZM4.881,7.630 L4.881,7.630 C3.955,8.294 3.144,9.000 2.453,9.705 L2.257,9.443 C-0.101,6.313 1.192,4.212 5.229,4.578 L5.559,4.614 C5.261,5.529 5.032,6.547 4.881,7.630 L4.881,7.630 ZM6.097,14.158 L6.097,14.158 C6.947,14.685 7.834,15.176 8.753,15.607 C8.024,15.846 7.314,16.050 6.624,16.181 C6.408,15.547 6.237,14.877 6.097,14.158 L6.097,14.158 ZM13.082,17.426 L13.082,17.426 C11.440,20.825 8.785,20.825 7.137,17.426 L7.010,17.127 C7.986,16.918 9.044,16.612 10.109,16.193 C11.187,16.612 12.232,16.918 13.221,17.127 C13.183,17.229 13.132,17.330 13.082,17.426 L13.082,17.426 ZM13.595,16.181 L13.595,16.181 C12.917,16.050 12.200,15.846 11.465,15.607 C12.385,15.176 13.278,14.685 14.134,14.158 C13.994,14.877 13.817,15.547 13.595,16.181 L13.595,16.181 ZM14.343,12.788 L14.343,12.788 C13.031,13.692 11.599,14.476 10.109,15.092 C8.620,14.476 7.194,13.692 5.882,12.788 C5.705,11.250 5.705,9.705 5.882,8.174 C7.194,7.276 8.632,6.492 10.109,5.870 C11.599,6.492 13.031,7.276 14.343,8.174 C14.508,9.705 14.508,11.250 14.343,12.788 L14.343,12.788 ZM14.989,16.385 L14.989,16.385 L14.659,16.349 C14.964,15.439 15.198,14.410 15.351,13.333 C16.276,12.668 17.081,11.956 17.771,11.262 L17.968,11.519 C20.262,14.578 18.931,16.744 14.989,16.385 L14.989,16.385 ZM10.109,7.384 L10.109,7.384 C8.316,7.384 6.833,8.779 6.833,10.478 C6.833,12.178 8.316,13.584 10.109,13.584 C11.909,13.584 13.398,12.178 13.398,10.478 C13.398,8.779 11.909,7.384 10.109,7.384 L10.109,7.384 ZM10.109,11.891 L10.109,11.891 C9.292,11.891 8.620,11.250 8.620,10.478 C8.620,9.718 9.292,9.072 10.109,9.072 C10.939,9.072 11.605,9.718 11.605,10.478 C11.605,11.250 10.939,11.891 10.109,11.891 L10.109,11.891 Z" class="cls-1"/>
</svg>
