<svg xmlns="http://www.w3.org/2000/svg" xmlns:xlink="http://www.w3.org/1999/xlink" preserveAspectRatio="xMidYMid" width="16" height="21.03" viewBox="0 0 16 21.03">
  <defs>
    <style>
      .cls-1 {
        fill: #369;
        fill-rule: evenodd;
      }
    </style>
  </defs>
  <path d="M15.988,13.022 C15.988,15.225 15.099,17.239 13.650,18.690 C12.211,20.136 10.206,21.030 7.994,21.030 C5.782,21.030 3.782,20.136 2.343,18.690 C0.894,17.239 -0.006,15.225 -0.006,13.022 C-0.006,9.098 2.630,5.999 5.197,2.971 L5.243,2.931 C5.971,2.070 6.693,1.216 7.346,0.344 C7.615,-0.012 8.120,-0.087 8.475,0.183 C8.544,0.241 8.595,0.292 8.647,0.355 C9.283,1.204 10.034,2.087 10.785,2.971 L10.824,3.029 C13.386,6.034 15.988,9.127 15.988,13.022 L15.988,13.022 ZM12.509,17.543 L12.509,17.543 C13.661,16.389 14.378,14.789 14.378,13.022 C14.378,9.706 11.970,6.849 9.610,4.061 L9.558,4.015 C9.031,3.396 8.498,2.776 7.994,2.133 C7.507,2.753 6.985,3.355 6.469,3.969 L6.435,4.015 C4.045,6.814 1.610,9.689 1.610,13.022 C1.610,14.789 2.332,16.389 3.478,17.543 C4.630,18.702 6.229,19.418 7.994,19.418 C9.759,19.418 11.346,18.702 12.509,17.543 L12.509,17.543 Z" class="cls-1"/>
</svg>
