<svg xmlns="http://www.w3.org/2000/svg" xmlns:xlink="http://www.w3.org/1999/xlink" preserveAspectRatio="xMidYMid" width="16" height="21" viewBox="0 0 16 21">
  <defs>
    <style>
      .cls-1 {
        fill: #369;
        fill-rule: evenodd;
      }
    </style>
  </defs>
  <path d="M15.158,19.356 L13.203,19.356 L10.738,6.507 C10.774,6.455 10.786,6.408 10.798,6.367 L13.215,3.967 L14.151,3.967 L14.151,5.604 C14.151,5.883 14.370,6.099 14.649,6.099 C14.927,6.099 15.158,5.883 15.158,5.604 L15.158,3.967 L15.277,3.967 C15.556,3.967 15.775,3.752 15.775,3.483 C15.775,3.216 15.556,2.989 15.277,2.989 L10.063,2.989 L9.820,1.713 C9.808,1.678 9.802,1.649 9.790,1.625 L9.778,1.591 L9.767,1.562 L9.755,1.550 L9.743,1.527 C9.725,1.509 9.701,1.486 9.678,1.451 L9.678,1.451 L8.368,0.164 L8.345,0.141 C8.143,-0.052 7.829,-0.052 7.634,0.141 L6.295,1.451 C6.211,1.539 6.158,1.638 6.147,1.742 L5.915,2.989 L0.701,2.989 C0.423,2.989 0.198,3.216 0.198,3.483 C0.198,3.752 0.423,3.967 0.701,3.967 L0.832,3.967 L0.832,5.604 C0.832,5.883 1.045,6.099 1.324,6.099 C1.596,6.099 1.827,5.883 1.827,5.604 L1.827,3.967 L2.680,3.967 L5.240,6.507 L2.775,19.356 L0.819,19.356 C0.369,19.356 -0.010,19.723 -0.010,20.171 C-0.010,20.637 0.369,20.998 0.819,20.998 L15.158,20.998 C15.620,20.998 15.988,20.637 15.988,20.171 C15.988,19.723 15.620,19.356 15.158,19.356 L15.158,19.356 ZM11.627,16.443 L11.627,16.443 L6.188,16.443 L11.177,14.043 L11.627,16.443 L11.627,16.443 ZM10.880,12.482 L10.880,12.482 L7.012,10.316 L10.454,10.316 L10.880,12.482 L10.880,12.482 ZM11.799,3.967 L11.799,3.967 L10.501,5.261 L10.252,3.967 L11.799,3.967 L11.799,3.967 ZM9.843,7.107 L9.843,7.107 L10.264,9.326 L6.691,9.326 L9.843,7.107 L9.843,7.107 ZM7.106,2.045 L7.106,2.045 L7.989,1.171 L8.866,2.045 L9.056,2.989 L6.935,2.989 L7.106,2.045 L7.106,2.045 ZM6.739,3.967 L6.739,3.967 L9.239,3.967 L9.583,5.767 L6.395,5.767 L6.739,3.967 L6.739,3.967 ZM6.211,6.752 L6.211,6.752 L8.641,6.752 L5.826,8.744 L6.211,6.752 L6.211,6.752 ZM4.090,3.967 L4.090,3.967 L5.720,3.967 L5.465,5.324 L4.090,3.967 L4.090,3.967 ZM5.477,10.572 L5.477,10.572 L9.559,12.884 L5.033,12.884 L5.477,10.572 L5.477,10.572 ZM4.843,13.863 L4.843,13.863 L9.263,13.863 L4.399,16.204 L4.843,13.863 L4.843,13.863 ZM3.794,19.356 L3.794,19.356 L4.155,17.434 L11.811,17.434 L12.184,19.356 L3.794,19.356 L3.794,19.356 Z" class="cls-1"/>
</svg>
