<svg xmlns="http://www.w3.org/2000/svg" xmlns:xlink="http://www.w3.org/1999/xlink" preserveAspectRatio="xMidYMid" width="16" height="20.91" viewBox="0 0 16 20.91">
  <defs>
    <style>
      .cls-1 {
        fill: #369;
        fill-rule: evenodd;
      }
    </style>
  </defs>
  <path d="M9.576,13.070 L11.880,13.070 C12.124,13.070 12.322,12.869 12.322,12.620 C12.322,12.377 12.124,12.182 11.880,12.182 L10.008,12.182 L10.008,8.809 C10.008,8.555 9.815,8.365 9.576,8.365 C9.326,8.365 9.128,8.555 9.128,8.809 L9.128,12.620 C9.128,12.869 9.326,13.070 9.576,13.070 L9.576,13.070 ZM4.614,13.070 L4.614,13.070 L5.888,13.070 C6.138,13.070 6.362,12.975 6.538,12.817 L6.570,12.790 C6.741,12.615 6.845,12.366 6.845,12.097 L6.845,9.328 C6.845,9.063 6.741,8.819 6.570,8.645 C6.393,8.470 6.153,8.365 5.888,8.365 L4.614,8.365 C4.349,8.365 4.109,8.470 3.938,8.645 C3.766,8.819 3.652,9.063 3.652,9.328 L3.652,12.097 C3.652,12.366 3.766,12.615 3.938,12.790 C4.109,12.965 4.349,13.070 4.614,13.070 L4.614,13.070 ZM4.541,9.328 L4.541,9.328 C4.541,9.312 4.552,9.291 4.562,9.280 C4.573,9.270 4.593,9.253 4.614,9.253 L5.888,9.253 C5.914,9.253 5.935,9.270 5.946,9.280 C5.966,9.291 5.972,9.312 5.972,9.328 L5.972,12.097 C5.972,12.113 5.966,12.144 5.946,12.165 L5.946,12.165 C5.925,12.176 5.914,12.182 5.888,12.182 L4.614,12.182 C4.593,12.182 4.573,12.176 4.562,12.165 C4.552,12.144 4.541,12.113 4.541,12.097 L4.541,9.328 L4.541,9.328 ZM15.261,17.941 L15.261,17.941 C15.671,17.941 15.999,17.618 15.999,17.195 C15.999,16.787 15.671,16.464 15.261,16.464 L15.058,16.464 L15.058,5.966 L15.261,5.966 C15.671,5.966 15.999,5.633 15.999,5.225 C15.999,4.812 15.671,4.473 15.261,4.473 L15.058,4.473 L15.058,3.007 L15.261,3.007 C15.671,3.007 15.994,2.674 15.994,2.266 C15.994,1.853 15.671,1.514 15.261,1.514 L6.008,1.514 L6.008,0.455 C6.008,0.201 5.810,0.005 5.571,0.005 L2.939,0.005 C2.700,0.005 2.497,0.201 2.497,0.455 L2.497,1.514 L0.724,1.514 C0.318,1.514 -0.015,1.853 -0.015,2.266 C-0.015,2.674 0.318,3.007 0.724,3.007 L0.932,3.007 L0.932,4.473 L0.724,4.473 C0.318,4.473 -0.015,4.812 -0.015,5.225 C-0.015,5.633 0.318,5.966 0.724,5.966 L0.932,5.966 L0.932,16.464 L0.724,16.464 C0.318,16.464 -0.015,16.787 -0.015,17.195 C-0.015,17.618 0.318,17.941 0.724,17.941 L0.932,17.941 L0.932,19.418 L0.724,19.418 C0.318,19.418 -0.015,19.736 -0.015,20.170 C-0.015,20.573 0.318,20.911 0.724,20.911 L15.261,20.911 C15.671,20.911 15.994,20.573 15.994,20.170 C15.994,19.736 15.671,19.418 15.261,19.418 L15.058,19.418 L15.058,17.941 L15.261,17.941 L15.261,17.941 ZM3.371,0.894 L3.371,0.894 L5.129,0.894 L5.129,1.514 L3.371,1.514 L3.371,0.894 L3.371,0.894 ZM13.586,19.418 L13.586,19.418 L2.393,19.418 L2.393,17.941 L13.586,17.941 L13.586,19.418 L13.586,19.418 ZM13.586,16.464 L13.586,16.464 L2.393,16.464 L2.393,5.966 L13.586,5.966 L13.586,16.464 L13.586,16.464 ZM13.586,4.473 L13.586,4.473 L2.393,4.473 L2.393,3.007 L13.586,3.007 L13.586,4.473 L13.586,4.473 ZM7.974,13.070 L7.974,13.070 C8.218,13.070 8.421,12.869 8.421,12.620 L8.421,8.809 C8.421,8.555 8.218,8.365 7.974,8.365 C7.729,8.365 7.537,8.555 7.537,8.809 L7.537,12.620 C7.537,12.869 7.729,13.070 7.974,13.070 L7.974,13.070 Z" class="cls-1"/>
</svg>
